# xmcd
#
# Track frame offsets:
#	150
#	17888
#	31323
#	48575
#	67151
#	80862
#	97679
#	116190
#	129263
#	148421
#	168774
#	178225
#
# Disc length: 2677 seconds
#
# Revision: 1
# Processed by: cddbd v1.5.2PL0 Copyright (c) Steve Scherf et al.
# Submitted via: audiograbber 1.83.01
#
DISCID=ac0a730c
DTITLE=Steve Eales - The Battler
DYEAR=2007
DGENRE=
TTITLE0=Brave
TTITLE1=Through Camooweal
TTITLE2=The Battler
TTITLE3=Girls On Horses
TTITLE4=Gone Dancing
TTITLE5=When A Cowboy Gets The Blues
TTITLE6=Move On
TTITLE7=Cowboy Crowd
TTITLE8=After All
TTITLE9=One Of These Days
TTITLE10=Maton Heaven
TTITLE11=Girls On Horses (Dance Mix)
EXTD=
EXTT0=
EXTT1=
EXTT2=
EXTT3=
EXTT4=
EXTT5=
EXTT6=
EXTT7=
EXTT8=
EXTT9=
EXTT10=
EXTT11=
PLAYORDER=
